<mxfile host="app.diagrams.net" modified="2022-12-22T12:45:15.942Z" agent="5.0 (Windows NT 10.0; Win64; x64) AppleWebKit/537.36 (KHTML, like Gecko) Chrome/108.0.0.0 Safari/537.36" etag="Jctw_J57ZWua61b17yip" version="20.7.4" type="github">
  <diagram name="Page-1" id="b5b7bab2-c9e2-2cf4-8b2a-24fd1a2a6d21">
    <mxGraphModel dx="1290" dy="549" grid="1" gridSize="10" guides="1" tooltips="1" connect="1" arrows="1" fold="1" page="1" pageScale="1" pageWidth="827" pageHeight="1169" background="none" math="0" shadow="0">
      <root>
        <mxCell id="0" />
        <mxCell id="1" parent="0" />
        <mxCell id="6e0c8c40b5770093-18" value="" style="group" parent="1" vertex="1" connectable="0">
          <mxGeometry x="710" y="190" width="876.5" height="320" as="geometry" />
        </mxCell>
        <mxCell id="6e0c8c40b5770093-11" value="" style="shape=folder;fontStyle=1;spacingTop=10;tabWidth=123;tabHeight=24;tabPosition=left;html=1;rounded=0;shadow=0;comic=0;labelBackgroundColor=none;strokeWidth=1;fontFamily=Verdana;fontSize=10;align=center;" parent="6e0c8c40b5770093-18" vertex="1">
          <mxGeometry x="-547.8125" width="876.5000000000001" height="320" as="geometry" />
        </mxCell>
        <mxCell id="aCvFtzd_hCHBJ19AGB1r-1" value="&lt;font style=&quot;font-size: 14px;&quot;&gt;Interface (View)&lt;/font&gt;" style="text;html=1;strokeColor=none;fillColor=none;align=center;verticalAlign=middle;whiteSpace=wrap;rounded=0;" parent="6e0c8c40b5770093-18" vertex="1">
          <mxGeometry x="-219.12500000000003" y="60.95238095238094" width="262.95" height="45.71428571428571" as="geometry" />
        </mxCell>
        <mxCell id="aCvFtzd_hCHBJ19AGB1r-9" value="Custom" style="shape=folder;fontStyle=1;spacingTop=10;tabWidth=50;tabHeight=17;tabPosition=left;html=1;rounded=0;shadow=0;comic=0;labelBackgroundColor=none;strokeWidth=1;fontFamily=Verdana;fontSize=10;align=center;" parent="6e0c8c40b5770093-18" vertex="1">
          <mxGeometry x="-272.02" y="133.33" width="94.7" height="66.67" as="geometry" />
        </mxCell>
        <mxCell id="aCvFtzd_hCHBJ19AGB1r-10" value="Theme" style="shape=folder;fontStyle=1;spacingTop=10;tabWidth=50;tabHeight=17;tabPosition=left;html=1;rounded=0;shadow=0;comic=0;labelBackgroundColor=none;strokeWidth=1;fontFamily=Verdana;fontSize=10;align=center;" parent="6e0c8c40b5770093-18" vertex="1">
          <mxGeometry x="-151.12" y="133.33" width="94.7" height="66.67" as="geometry" />
        </mxCell>
        <mxCell id="aCvFtzd_hCHBJ19AGB1r-11" value="Drawable" style="shape=folder;fontStyle=1;spacingTop=10;tabWidth=50;tabHeight=17;tabPosition=left;html=1;rounded=0;shadow=0;comic=0;labelBackgroundColor=none;strokeWidth=1;fontFamily=Verdana;fontSize=10;align=center;" parent="6e0c8c40b5770093-18" vertex="1">
          <mxGeometry x="-30.22" y="133.33" width="94.7" height="66.67" as="geometry" />
        </mxCell>
        <mxCell id="aCvFtzd_hCHBJ19AGB1r-12" value="MinMap" style="shape=folder;fontStyle=1;spacingTop=10;tabWidth=50;tabHeight=17;tabPosition=left;html=1;rounded=0;shadow=0;comic=0;labelBackgroundColor=none;strokeWidth=1;fontFamily=Verdana;fontSize=10;align=center;" parent="6e0c8c40b5770093-18" vertex="1">
          <mxGeometry x="90.67" y="133.33" width="94.7" height="66.67" as="geometry" />
        </mxCell>
        <mxCell id="aCvFtzd_hCHBJ19AGB1r-13" value="Components" style="shape=folder;fontStyle=1;spacingTop=10;tabWidth=50;tabHeight=17;tabPosition=left;html=1;rounded=0;shadow=0;comic=0;labelBackgroundColor=none;strokeWidth=1;fontFamily=Verdana;fontSize=10;align=center;" parent="6e0c8c40b5770093-18" vertex="1">
          <mxGeometry x="211.57" y="133.33" width="94.7" height="66.67" as="geometry" />
        </mxCell>
        <mxCell id="aCvFtzd_hCHBJ19AGB1r-8" value="Layouts" style="shape=folder;fontStyle=1;spacingTop=10;tabWidth=50;tabHeight=17;tabPosition=left;html=1;rounded=0;shadow=0;comic=0;labelBackgroundColor=none;strokeWidth=1;fontFamily=Verdana;fontSize=10;align=center;" parent="6e0c8c40b5770093-18" vertex="1">
          <mxGeometry x="-517.93" y="133.33" width="93.63" height="66.67" as="geometry" />
        </mxCell>
        <mxCell id="6e0c8c40b5770093-17" value="Menu" style="shape=folder;fontStyle=1;spacingTop=10;tabWidth=50;tabHeight=17;tabPosition=left;html=1;rounded=0;shadow=0;comic=0;labelBackgroundColor=none;strokeWidth=1;fontFamily=Verdana;fontSize=10;align=center;" parent="6e0c8c40b5770093-18" vertex="1">
          <mxGeometry x="-394.93" y="133.33" width="94.7" height="66.67" as="geometry" />
        </mxCell>
        <mxCell id="aCvFtzd_hCHBJ19AGB1r-52" style="edgeStyle=none;rounded=0;html=1;entryX=0.25;entryY=1;entryPerimeter=0;dashed=1;labelBackgroundColor=none;startFill=0;endArrow=open;endFill=0;endSize=10;fontFamily=Verdana;fontSize=10;exitX=0.75;exitY=1;exitDx=0;exitDy=0;exitPerimeter=0;entryDx=0;entryDy=0;" parent="6e0c8c40b5770093-18" source="aCvFtzd_hCHBJ19AGB1r-13" target="aCvFtzd_hCHBJ19AGB1r-8" edge="1">
          <mxGeometry relative="1" as="geometry">
            <mxPoint x="185.36978977272727" y="240" as="sourcePoint" />
            <mxPoint x="-63.635892045454305" y="306.66666666666663" as="targetPoint" />
            <Array as="points">
              <mxPoint x="282.37244318181814" y="293.3333333333333" />
              <mxPoint x="-494.52528409090905" y="293.3333333333333" />
            </Array>
          </mxGeometry>
        </mxCell>
        <mxCell id="aCvFtzd_hCHBJ19AGB1r-53" style="edgeStyle=none;rounded=0;html=1;entryX=0.5;entryY=1;entryPerimeter=0;dashed=1;labelBackgroundColor=none;startFill=0;endArrow=open;endFill=0;endSize=10;fontFamily=Verdana;fontSize=10;exitX=0.5;exitY=1;exitDx=0;exitDy=0;exitPerimeter=0;entryDx=0;entryDy=0;" parent="6e0c8c40b5770093-18" source="aCvFtzd_hCHBJ19AGB1r-13" target="aCvFtzd_hCHBJ19AGB1r-8" edge="1">
          <mxGeometry x="-1" y="-120" relative="1" as="geometry">
            <mxPoint x="-85.06551017592037" y="333.3333333333333" as="sourcePoint" />
            <mxPoint x="-97.21181818181797" y="509.9866666666667" as="targetPoint" />
            <Array as="points">
              <mxPoint x="258.4678977272727" y="280" />
              <mxPoint x="-470.6207386363636" y="280" />
            </Array>
            <mxPoint x="126" y="-109" as="offset" />
          </mxGeometry>
        </mxCell>
        <mxCell id="aCvFtzd_hCHBJ19AGB1r-54" style="edgeStyle=none;rounded=0;html=1;dashed=1;labelBackgroundColor=none;startFill=0;endArrow=open;endFill=0;endSize=10;fontFamily=Verdana;fontSize=10;exitX=0;exitY=0;exitDx=0;exitDy=41.835;exitPerimeter=0;entryX=0;entryY=0;entryDx=93.63;entryDy=41.835;entryPerimeter=0;" parent="6e0c8c40b5770093-18" source="6e0c8c40b5770093-17" target="aCvFtzd_hCHBJ19AGB1r-8" edge="1">
          <mxGeometry relative="1" as="geometry">
            <mxPoint x="-430" y="180" as="sourcePoint" />
            <mxPoint x="-560" y="510" as="targetPoint" />
          </mxGeometry>
        </mxCell>
        <mxCell id="aCvFtzd_hCHBJ19AGB1r-55" style="edgeStyle=none;rounded=0;html=1;entryX=0;entryY=0;entryPerimeter=0;dashed=1;labelBackgroundColor=none;startFill=0;endArrow=open;endFill=0;endSize=10;fontFamily=Verdana;fontSize=10;exitX=0;exitY=0;exitDx=0;exitDy=42.07;exitPerimeter=0;entryDx=95.08045977011496;entryDy=42.07;" parent="6e0c8c40b5770093-18" source="aCvFtzd_hCHBJ19AGB1r-9" target="6e0c8c40b5770093-17" edge="1">
          <mxGeometry relative="1" as="geometry">
            <mxPoint x="-163.6517033577385" y="333.3333333333333" as="sourcePoint" />
            <mxPoint x="-175.79801136363614" y="509.9866666666667" as="targetPoint" />
          </mxGeometry>
        </mxCell>
        <mxCell id="aCvFtzd_hCHBJ19AGB1r-56" style="edgeStyle=none;rounded=0;html=1;entryX=0.75;entryY=1;entryPerimeter=0;dashed=1;labelBackgroundColor=none;startFill=0;endArrow=open;endFill=0;endSize=10;fontFamily=Verdana;fontSize=10;exitX=0.25;exitY=1;exitDx=0;exitDy=0;exitPerimeter=0;entryDx=0;entryDy=0;" parent="6e0c8c40b5770093-18" source="aCvFtzd_hCHBJ19AGB1r-10" target="aCvFtzd_hCHBJ19AGB1r-8" edge="1">
          <mxGeometry relative="1" as="geometry">
            <mxPoint x="-113.85056699410215" y="333.3333333333333" as="sourcePoint" />
            <mxPoint x="-125.99687499999976" y="509.9866666666667" as="targetPoint" />
            <Array as="points">
              <mxPoint x="-125.99687499999999" y="266.66666666666663" />
              <mxPoint x="-447.7122159090909" y="266.66666666666663" />
            </Array>
          </mxGeometry>
        </mxCell>
        <mxCell id="aCvFtzd_hCHBJ19AGB1r-57" style="edgeStyle=none;rounded=0;html=1;entryX=0;entryY=0;entryPerimeter=0;dashed=1;labelBackgroundColor=none;startFill=0;endArrow=open;endFill=0;endSize=10;fontFamily=Verdana;fontSize=10;exitX=0;exitY=0;exitDx=95.08045977011496;exitDy=42.07;exitPerimeter=0;entryDx=0;entryDy=42.07;" parent="6e0c8c40b5770093-18" source="aCvFtzd_hCHBJ19AGB1r-12" target="aCvFtzd_hCHBJ19AGB1r-13" edge="1">
          <mxGeometry relative="1" as="geometry">
            <mxPoint x="-57.186834039556715" y="333.3333333333333" as="sourcePoint" />
            <mxPoint x="-69.33314204545432" y="509.9866666666667" as="targetPoint" />
          </mxGeometry>
        </mxCell>
        <mxCell id="aCvFtzd_hCHBJ19AGB1r-59" style="edgeStyle=none;rounded=0;html=1;dashed=1;labelBackgroundColor=none;startFill=0;endArrow=open;endFill=0;endSize=10;fontFamily=Verdana;fontSize=10;exitX=0.25;exitY=1;exitDx=0;exitDy=0;exitPerimeter=0;entryX=0.25;entryY=1;entryDx=0;entryDy=0;entryPerimeter=0;" parent="6e0c8c40b5770093-18" source="aCvFtzd_hCHBJ19AGB1r-13" target="6e0c8c40b5770093-17" edge="1">
          <mxGeometry relative="1" as="geometry">
            <mxPoint x="-510" y="350" as="sourcePoint" />
            <mxPoint x="-580" y="380" as="targetPoint" />
            <Array as="points">
              <mxPoint x="235" y="250" />
              <mxPoint x="-371" y="250" />
            </Array>
          </mxGeometry>
        </mxCell>
        <mxCell id="aCvFtzd_hCHBJ19AGB1r-61" style="edgeStyle=none;rounded=0;html=1;dashed=1;labelBackgroundColor=none;startFill=0;endArrow=open;endFill=0;endSize=10;fontFamily=Verdana;fontSize=10;exitX=0.25;exitY=1;exitDx=0;exitDy=0;exitPerimeter=0;entryX=0;entryY=0;entryDx=93.63;entryDy=66.67;entryPerimeter=0;" parent="6e0c8c40b5770093-18" source="aCvFtzd_hCHBJ19AGB1r-11" target="aCvFtzd_hCHBJ19AGB1r-8" edge="1">
          <mxGeometry relative="1" as="geometry">
            <mxPoint x="332.194810091489" y="395" as="sourcePoint" />
            <mxPoint x="-350" y="350" as="targetPoint" />
            <Array as="points">
              <mxPoint x="-7" y="240" />
              <mxPoint x="-424" y="240" />
            </Array>
          </mxGeometry>
        </mxCell>
        <mxCell id="6e0c8c40b5770093-67" style="edgeStyle=none;rounded=0;html=1;dashed=1;labelBackgroundColor=none;startFill=0;endArrow=open;endFill=0;endSize=10;fontFamily=Verdana;fontSize=10;exitX=0.75;exitY=1;exitDx=0;exitDy=0;exitPerimeter=0;entryX=0;entryY=0;entryDx=0;entryDy=66.67;entryPerimeter=0;" parent="6e0c8c40b5770093-18" source="aCvFtzd_hCHBJ19AGB1r-9" target="aCvFtzd_hCHBJ19AGB1r-13" edge="1">
          <mxGeometry relative="1" as="geometry">
            <mxPoint x="80" y="350" as="targetPoint" />
            <Array as="points">
              <mxPoint x="-200" y="220" />
              <mxPoint x="212" y="220" />
            </Array>
          </mxGeometry>
        </mxCell>
        <mxCell id="6e0c8c40b5770093-33" value="" style="shape=folder;fontStyle=1;spacingTop=10;tabWidth=123;tabHeight=24;tabPosition=left;html=1;rounded=0;shadow=0;comic=0;labelBackgroundColor=none;strokeColor=#000000;strokeWidth=1;fillColor=#ffffff;fontFamily=Verdana;fontSize=10;fontColor=#000000;align=center;" parent="1" vertex="1">
          <mxGeometry x="280" y="700" width="610" height="290" as="geometry" />
        </mxCell>
        <mxCell id="6e0c8c40b5770093-52" value="" style="group" parent="1" vertex="1" connectable="0">
          <mxGeometry x="472.91999999999996" y="1540" width="180" height="100" as="geometry" />
        </mxCell>
        <mxCell id="6e0c8c40b5770093-53" value="Data NoSQL FireBase" style="shape=folder;fontStyle=1;spacingTop=10;tabWidth=50;tabHeight=17;tabPosition=left;html=1;rounded=0;shadow=0;comic=0;labelBackgroundColor=none;strokeWidth=1;fontFamily=Verdana;fontSize=10;align=center;" parent="6e0c8c40b5770093-52" vertex="1">
          <mxGeometry width="180" height="100" as="geometry" />
        </mxCell>
        <mxCell id="aCvFtzd_hCHBJ19AGB1r-40" value="Adapters" style="shape=folder;fontStyle=1;spacingTop=10;tabWidth=50;tabHeight=17;tabPosition=left;html=1;rounded=0;shadow=0;comic=0;labelBackgroundColor=none;strokeWidth=1;fontFamily=Verdana;fontSize=10;align=center;" parent="1" vertex="1">
          <mxGeometry x="302.92" y="800.5" width="94" height="67.14" as="geometry" />
        </mxCell>
        <mxCell id="aCvFtzd_hCHBJ19AGB1r-41" value="Tasks" style="shape=folder;fontStyle=1;spacingTop=10;tabWidth=50;tabHeight=17;tabPosition=left;html=1;rounded=0;shadow=0;comic=0;labelBackgroundColor=none;strokeWidth=1;fontFamily=Verdana;fontSize=10;align=center;" parent="1" vertex="1">
          <mxGeometry x="418.92" y="800.5" width="94" height="67.14" as="geometry" />
        </mxCell>
        <mxCell id="aCvFtzd_hCHBJ19AGB1r-42" value="Permissions" style="shape=folder;fontStyle=1;spacingTop=10;tabWidth=50;tabHeight=17;tabPosition=left;html=1;rounded=0;shadow=0;comic=0;labelBackgroundColor=none;strokeWidth=1;fontFamily=Verdana;fontSize=10;align=center;" parent="1" vertex="1">
          <mxGeometry x="537.9999999999999" y="800.5" width="94" height="67.14" as="geometry" />
        </mxCell>
        <mxCell id="aCvFtzd_hCHBJ19AGB1r-43" value="Values" style="shape=folder;fontStyle=1;spacingTop=10;tabWidth=50;tabHeight=17;tabPosition=left;html=1;rounded=0;shadow=0;comic=0;labelBackgroundColor=none;strokeWidth=1;fontFamily=Verdana;fontSize=10;align=center;" parent="1" vertex="1">
          <mxGeometry x="652.92" y="800.5" width="94" height="67.14" as="geometry" />
        </mxCell>
        <mxCell id="aCvFtzd_hCHBJ19AGB1r-44" value="Config" style="shape=folder;fontStyle=1;spacingTop=10;tabWidth=50;tabHeight=17;tabPosition=left;html=1;rounded=0;shadow=0;comic=0;labelBackgroundColor=none;strokeWidth=1;fontFamily=Verdana;fontSize=10;align=center;" parent="1" vertex="1">
          <mxGeometry x="772.92" y="800.5" width="94" height="67.14" as="geometry" />
        </mxCell>
        <mxCell id="aCvFtzd_hCHBJ19AGB1r-45" value="" style="shape=folder;fontStyle=1;spacingTop=10;tabWidth=123;tabHeight=24;tabPosition=left;html=1;rounded=0;shadow=0;comic=0;labelBackgroundColor=none;strokeColor=#000000;strokeWidth=1;fillColor=#ffffff;fontFamily=Verdana;fontSize=10;fontColor=#000000;align=center;" parent="1" vertex="1">
          <mxGeometry x="320" y="1180" width="530" height="240" as="geometry" />
        </mxCell>
        <mxCell id="aCvFtzd_hCHBJ19AGB1r-46" value="Activities (Business logic)" style="text;html=1;strokeColor=none;fillColor=none;align=center;verticalAlign=middle;whiteSpace=wrap;rounded=0;fontSize=14;" parent="1" vertex="1">
          <mxGeometry x="502.92" y="740" width="170" height="30" as="geometry" />
        </mxCell>
        <mxCell id="aCvFtzd_hCHBJ19AGB1r-47" value="Cached Database" style="text;html=1;strokeColor=none;fillColor=none;align=center;verticalAlign=middle;whiteSpace=wrap;rounded=0;fontSize=14;" parent="1" vertex="1">
          <mxGeometry x="500" y="1230" width="170" height="30" as="geometry" />
        </mxCell>
        <mxCell id="aCvFtzd_hCHBJ19AGB1r-48" value="Datamodel" style="shape=folder;fontStyle=1;spacingTop=10;tabWidth=50;tabHeight=17;tabPosition=left;html=1;rounded=0;shadow=0;comic=0;labelBackgroundColor=none;strokeWidth=1;fontFamily=Verdana;fontSize=10;align=center;" parent="1" vertex="1">
          <mxGeometry x="352" y="1300" width="94" height="67.14" as="geometry" />
        </mxCell>
        <mxCell id="aCvFtzd_hCHBJ19AGB1r-49" value="Viewmodel" style="shape=folder;fontStyle=1;spacingTop=10;tabWidth=50;tabHeight=17;tabPosition=left;html=1;rounded=0;shadow=0;comic=0;labelBackgroundColor=none;strokeWidth=1;fontFamily=Verdana;fontSize=10;align=center;" parent="1" vertex="1">
          <mxGeometry x="471.08" y="1300" width="94" height="67.14" as="geometry" />
        </mxCell>
        <mxCell id="aCvFtzd_hCHBJ19AGB1r-50" value="Repository" style="shape=folder;fontStyle=1;spacingTop=10;tabWidth=50;tabHeight=17;tabPosition=left;html=1;rounded=0;shadow=0;comic=0;labelBackgroundColor=none;strokeWidth=1;fontFamily=Verdana;fontSize=10;align=center;" parent="1" vertex="1">
          <mxGeometry x="590" y="1300" width="94" height="67.14" as="geometry" />
        </mxCell>
        <mxCell id="aCvFtzd_hCHBJ19AGB1r-51" value="DAO" style="shape=folder;fontStyle=1;spacingTop=10;tabWidth=50;tabHeight=17;tabPosition=left;html=1;rounded=0;shadow=0;comic=0;labelBackgroundColor=none;strokeWidth=1;fontFamily=Verdana;fontSize=10;align=center;" parent="1" vertex="1">
          <mxGeometry x="710" y="1300" width="94" height="67.14" as="geometry" />
        </mxCell>
        <mxCell id="aCvFtzd_hCHBJ19AGB1r-62" style="edgeStyle=none;rounded=0;html=1;dashed=1;labelBackgroundColor=none;startFill=0;endArrow=open;endFill=0;endSize=10;fontFamily=Verdana;fontSize=10;entryX=0;entryY=0;entryDx=0;entryDy=67.14;entryPerimeter=0;exitX=0;exitY=0;exitDx=93.99999999999999;exitDy=67.14;exitPerimeter=0;" parent="1" source="aCvFtzd_hCHBJ19AGB1r-44" target="aCvFtzd_hCHBJ19AGB1r-40" edge="1">
          <mxGeometry relative="1" as="geometry">
            <mxPoint x="202.92000000000002" y="1080" as="sourcePoint" />
            <mxPoint x="202.92000000000002" y="860" as="targetPoint" />
            <Array as="points">
              <mxPoint x="866.92" y="970" />
              <mxPoint x="302.92" y="970" />
            </Array>
          </mxGeometry>
        </mxCell>
        <mxCell id="aCvFtzd_hCHBJ19AGB1r-64" style="edgeStyle=none;rounded=0;html=1;dashed=1;labelBackgroundColor=none;startFill=0;endArrow=open;endFill=0;endSize=10;fontFamily=Verdana;fontSize=10;entryX=0;entryY=0;entryDx=0;entryDy=42.07;entryPerimeter=0;exitX=0;exitY=0;exitDx=93.99999999999999;exitDy=42.07;exitPerimeter=0;" parent="1" source="aCvFtzd_hCHBJ19AGB1r-43" target="aCvFtzd_hCHBJ19AGB1r-44" edge="1">
          <mxGeometry relative="1" as="geometry">
            <mxPoint x="150" y="670" as="sourcePoint" />
            <mxPoint x="410" y="610" as="targetPoint" />
          </mxGeometry>
        </mxCell>
        <mxCell id="aCvFtzd_hCHBJ19AGB1r-65" style="edgeStyle=none;rounded=0;html=1;dashed=1;labelBackgroundColor=none;startFill=0;endArrow=open;endFill=0;endSize=10;fontFamily=Verdana;fontSize=10;exitX=0.75;exitY=1;exitDx=0;exitDy=0;exitPerimeter=0;entryX=0;entryY=0;entryDx=0;entryDy=67.14;entryPerimeter=0;" parent="1" source="aCvFtzd_hCHBJ19AGB1r-43" target="aCvFtzd_hCHBJ19AGB1r-41" edge="1">
          <mxGeometry relative="1" as="geometry">
            <mxPoint x="1020" y="950" as="sourcePoint" />
            <mxPoint x="510" y="1000" as="targetPoint" />
            <Array as="points">
              <mxPoint x="723" y="950" />
              <mxPoint x="419" y="950" />
            </Array>
          </mxGeometry>
        </mxCell>
        <mxCell id="aCvFtzd_hCHBJ19AGB1r-66" style="edgeStyle=none;rounded=0;html=1;dashed=1;labelBackgroundColor=none;startFill=0;endArrow=open;endFill=0;endSize=10;fontFamily=Verdana;fontSize=10;entryX=0;entryY=0;entryDx=93.99999999999999;entryDy=42.07;entryPerimeter=0;exitX=0;exitY=0;exitDx=0;exitDy=42.07;exitPerimeter=0;" parent="1" source="aCvFtzd_hCHBJ19AGB1r-43" target="aCvFtzd_hCHBJ19AGB1r-42" edge="1">
          <mxGeometry relative="1" as="geometry">
            <mxPoint x="1030" y="1090" as="sourcePoint" />
            <mxPoint x="1080" y="850" as="targetPoint" />
          </mxGeometry>
        </mxCell>
        <mxCell id="aCvFtzd_hCHBJ19AGB1r-67" style="edgeStyle=none;rounded=0;html=1;dashed=1;labelBackgroundColor=none;startFill=0;endArrow=open;endFill=0;endSize=10;fontFamily=Verdana;fontSize=10;entryX=0.25;entryY=1;entryDx=0;entryDy=0;entryPerimeter=0;exitX=0.5;exitY=1;exitDx=0;exitDy=0;exitPerimeter=0;" parent="1" source="aCvFtzd_hCHBJ19AGB1r-43" target="aCvFtzd_hCHBJ19AGB1r-40" edge="1">
          <mxGeometry relative="1" as="geometry">
            <mxPoint x="1040" y="1080" as="sourcePoint" />
            <mxPoint x="920" y="1030" as="targetPoint" />
            <Array as="points">
              <mxPoint x="700" y="930" />
              <mxPoint x="326" y="930" />
            </Array>
          </mxGeometry>
        </mxCell>
        <mxCell id="aCvFtzd_hCHBJ19AGB1r-68" style="edgeStyle=none;rounded=0;html=1;dashed=1;labelBackgroundColor=none;startFill=0;endArrow=open;endFill=0;endSize=10;fontFamily=Verdana;fontSize=10;entryX=0;entryY=0;entryDx=93.99999999999999;entryDy=42.07;entryPerimeter=0;exitX=0;exitY=0;exitDx=0;exitDy=42.07;exitPerimeter=0;" parent="1" source="aCvFtzd_hCHBJ19AGB1r-41" target="aCvFtzd_hCHBJ19AGB1r-40" edge="1">
          <mxGeometry relative="1" as="geometry">
            <mxPoint x="662.9200000000001" y="852.5699999999997" as="sourcePoint" />
            <mxPoint x="642" y="852.5699999999997" as="targetPoint" />
          </mxGeometry>
        </mxCell>
        <mxCell id="aCvFtzd_hCHBJ19AGB1r-69" style="edgeStyle=none;rounded=0;html=1;dashed=1;labelBackgroundColor=none;startFill=0;endArrow=open;endFill=0;endSize=10;fontFamily=Verdana;fontSize=10;entryX=0.5;entryY=1;entryDx=0;entryDy=0;entryPerimeter=0;exitX=0.25;exitY=1;exitDx=0;exitDy=0;exitPerimeter=0;" parent="1" source="aCvFtzd_hCHBJ19AGB1r-42" target="aCvFtzd_hCHBJ19AGB1r-40" edge="1">
          <mxGeometry relative="1" as="geometry">
            <mxPoint x="428.9200000000001" y="852.5699999999997" as="sourcePoint" />
            <mxPoint x="406.9200000000001" y="852.5699999999997" as="targetPoint" />
            <Array as="points">
              <mxPoint x="562" y="910" />
              <mxPoint x="350" y="910" />
            </Array>
          </mxGeometry>
        </mxCell>
        <mxCell id="aCvFtzd_hCHBJ19AGB1r-70" style="edgeStyle=none;rounded=0;html=1;dashed=1;labelBackgroundColor=none;startFill=0;endArrow=open;endFill=0;endSize=10;fontFamily=Verdana;fontSize=10;exitX=0;exitY=0;exitDx=94.7;exitDy=66.67;exitPerimeter=0;entryX=0;entryY=0;entryDx=50;entryDy=17;entryPerimeter=0;" parent="1" source="aCvFtzd_hCHBJ19AGB1r-13" target="aCvFtzd_hCHBJ19AGB1r-41" edge="1">
          <mxGeometry relative="1" as="geometry">
            <mxPoint x="325.0699999999997" y="375.1650000000001" as="sourcePoint" />
            <mxPoint x="200" y="650" as="targetPoint" />
            <Array as="points">
              <mxPoint x="1016" y="650" />
              <mxPoint x="469" y="650" />
            </Array>
          </mxGeometry>
        </mxCell>
        <mxCell id="aCvFtzd_hCHBJ19AGB1r-71" style="edgeStyle=none;rounded=0;html=1;dashed=1;labelBackgroundColor=none;startFill=0;endArrow=open;endFill=0;endSize=10;fontFamily=Verdana;fontSize=10;entryX=0;entryY=0;entryDx=94.7;entryDy=41.835;entryPerimeter=0;exitX=0;exitY=0;exitDx=72;exitDy=17;exitPerimeter=0;" parent="1" source="aCvFtzd_hCHBJ19AGB1r-44" target="aCvFtzd_hCHBJ19AGB1r-13" edge="1">
          <mxGeometry relative="1" as="geometry">
            <mxPoint x="1090" y="860" as="sourcePoint" />
            <mxPoint x="1070" y="720" as="targetPoint" />
            <Array as="points">
              <mxPoint x="1060" y="820" />
              <mxPoint x="1060" y="365" />
            </Array>
          </mxGeometry>
        </mxCell>
        <mxCell id="aCvFtzd_hCHBJ19AGB1r-72" style="edgeStyle=none;rounded=0;html=1;dashed=1;labelBackgroundColor=none;startFill=0;endArrow=open;endFill=0;endSize=10;fontFamily=Verdana;fontSize=10;exitX=0;exitY=0;exitDx=0;exitDy=42.07;exitPerimeter=0;entryX=0;entryY=0;entryDx=93.99999999999999;entryDy=42.07;entryPerimeter=0;" parent="1" source="aCvFtzd_hCHBJ19AGB1r-51" target="aCvFtzd_hCHBJ19AGB1r-50" edge="1">
          <mxGeometry relative="1" as="geometry">
            <mxPoint x="730" y="1370" as="sourcePoint" />
            <mxPoint x="190" y="1080" as="targetPoint" />
            <Array as="points" />
          </mxGeometry>
        </mxCell>
        <mxCell id="aCvFtzd_hCHBJ19AGB1r-73" style="edgeStyle=none;rounded=0;html=1;dashed=1;labelBackgroundColor=none;startFill=0;endArrow=open;endFill=0;endSize=10;fontFamily=Verdana;fontSize=10;exitX=0.25;exitY=1;exitDx=0;exitDy=0;exitPerimeter=0;entryX=0.75;entryY=1;entryDx=0;entryDy=0;entryPerimeter=0;" parent="1" source="aCvFtzd_hCHBJ19AGB1r-48" target="aCvFtzd_hCHBJ19AGB1r-50" edge="1">
          <mxGeometry relative="1" as="geometry">
            <mxPoint x="150" y="900" as="sourcePoint" />
            <mxPoint x="200" y="1280" as="targetPoint" />
            <Array as="points">
              <mxPoint x="376" y="1400" />
              <mxPoint x="661" y="1400" />
            </Array>
          </mxGeometry>
        </mxCell>
        <mxCell id="aCvFtzd_hCHBJ19AGB1r-74" style="edgeStyle=none;rounded=0;html=1;dashed=1;labelBackgroundColor=none;startFill=0;endArrow=open;endFill=0;endSize=10;fontFamily=Verdana;fontSize=10;exitX=0;exitY=0;exitDx=0;exitDy=42.07;exitPerimeter=0;entryX=0;entryY=0;entryDx=0;entryDy=58.5;entryPerimeter=0;" parent="1" source="aCvFtzd_hCHBJ19AGB1r-48" target="6e0c8c40b5770093-53" edge="1">
          <mxGeometry relative="1" as="geometry">
            <mxPoint x="240" y="1310" as="sourcePoint" />
            <mxPoint x="280" y="1600" as="targetPoint" />
            <Array as="points">
              <mxPoint x="350" y="1600" />
            </Array>
          </mxGeometry>
        </mxCell>
        <mxCell id="aCvFtzd_hCHBJ19AGB1r-75" style="edgeStyle=none;rounded=0;html=1;dashed=1;labelBackgroundColor=none;startFill=0;endArrow=open;endFill=0;endSize=10;fontFamily=Verdana;fontSize=10;entryX=0;entryY=0;entryDx=115;entryDy=17;entryPerimeter=0;exitX=0;exitY=0;exitDx=0;exitDy=67.14;exitPerimeter=0;" parent="1" source="aCvFtzd_hCHBJ19AGB1r-50" target="6e0c8c40b5770093-53" edge="1">
          <mxGeometry relative="1" as="geometry">
            <mxPoint x="220" y="1460" as="sourcePoint" />
            <mxPoint x="200" y="1280" as="targetPoint" />
          </mxGeometry>
        </mxCell>
        <mxCell id="aCvFtzd_hCHBJ19AGB1r-76" style="edgeStyle=none;rounded=0;html=1;dashed=1;labelBackgroundColor=none;startFill=0;endArrow=open;endFill=0;endSize=10;fontFamily=Verdana;fontSize=10;exitX=0;exitY=0;exitDx=0;exitDy=17;exitPerimeter=0;entryX=0;entryY=0;entryDx=0;entryDy=66.67;entryPerimeter=0;" parent="1" source="aCvFtzd_hCHBJ19AGB1r-49" target="aCvFtzd_hCHBJ19AGB1r-8" edge="1">
          <mxGeometry relative="1" as="geometry">
            <mxPoint x="190" y="1160" as="sourcePoint" />
            <mxPoint x="170" y="980" as="targetPoint" />
            <Array as="points">
              <mxPoint x="471" y="1270" />
              <mxPoint x="190" y="1270" />
            </Array>
          </mxGeometry>
        </mxCell>
        <mxCell id="aCvFtzd_hCHBJ19AGB1r-77" style="edgeStyle=none;rounded=0;html=1;dashed=1;labelBackgroundColor=none;startFill=0;endArrow=open;endFill=0;endSize=10;fontFamily=Verdana;fontSize=10;entryX=0.75;entryY=1;entryDx=0;entryDy=0;entryPerimeter=0;exitX=0;exitY=0;exitDx=72;exitDy=17;exitPerimeter=0;" parent="1" source="aCvFtzd_hCHBJ19AGB1r-51" target="aCvFtzd_hCHBJ19AGB1r-40" edge="1">
          <mxGeometry relative="1" as="geometry">
            <mxPoint x="910" y="1100" as="sourcePoint" />
            <mxPoint x="530" y="999" as="targetPoint" />
            <Array as="points">
              <mxPoint x="780" y="1110" />
              <mxPoint x="373" y="1110" />
            </Array>
          </mxGeometry>
        </mxCell>
        <mxCell id="aCvFtzd_hCHBJ19AGB1r-78" style="edgeStyle=none;rounded=0;html=1;dashed=1;labelBackgroundColor=none;startFill=0;endArrow=open;endFill=0;endSize=10;fontFamily=Verdana;fontSize=10;exitX=0.25;exitY=1;exitDx=0;exitDy=0;exitPerimeter=0;entryX=0;entryY=0;entryDx=93.99999999999999;entryDy=17;entryPerimeter=0;" parent="1" source="aCvFtzd_hCHBJ19AGB1r-12" target="aCvFtzd_hCHBJ19AGB1r-40" edge="1">
          <mxGeometry relative="1" as="geometry">
            <mxPoint x="418.92" y="700" as="sourcePoint" />
            <mxPoint x="398.92" y="530" as="targetPoint" />
            <Array as="points">
              <mxPoint x="824" y="620" />
              <mxPoint x="397" y="620" />
            </Array>
          </mxGeometry>
        </mxCell>
        <mxCell id="aCvFtzd_hCHBJ19AGB1r-79" style="edgeStyle=none;rounded=0;html=1;dashed=1;labelBackgroundColor=none;startFill=0;endArrow=open;endFill=0;endSize=10;fontFamily=Verdana;fontSize=10;exitX=0.75;exitY=1;exitDx=0;exitDy=0;exitPerimeter=0;entryX=0;entryY=0;entryDx=72;entryDy=17;entryPerimeter=0;" parent="1" source="6e0c8c40b5770093-17" target="aCvFtzd_hCHBJ19AGB1r-41" edge="1">
          <mxGeometry relative="1" as="geometry">
            <mxPoint x="150" y="890" as="sourcePoint" />
            <mxPoint x="540" y="550" as="targetPoint" />
            <Array as="points">
              <mxPoint x="390" y="570" />
              <mxPoint x="490" y="570" />
            </Array>
          </mxGeometry>
        </mxCell>
        <mxCell id="aCvFtzd_hCHBJ19AGB1r-80" style="edgeStyle=none;rounded=0;html=1;dashed=1;labelBackgroundColor=none;startFill=0;endArrow=open;endFill=0;endSize=10;fontFamily=Verdana;fontSize=10;exitX=0.25;exitY=1;exitDx=0;exitDy=0;exitPerimeter=0;entryX=0;entryY=0;entryDx=72;entryDy=17;entryPerimeter=0;" parent="1" source="aCvFtzd_hCHBJ19AGB1r-44" target="aCvFtzd_hCHBJ19AGB1r-50" edge="1">
          <mxGeometry relative="1" as="geometry">
            <mxPoint x="710" y="1040" as="sourcePoint" />
            <mxPoint x="930" y="1030" as="targetPoint" />
            <Array as="points">
              <mxPoint x="800" y="1030" />
              <mxPoint x="660" y="1030" />
            </Array>
          </mxGeometry>
        </mxCell>
        <mxCell id="aCvFtzd_hCHBJ19AGB1r-81" style="edgeStyle=none;rounded=0;html=1;dashed=1;labelBackgroundColor=none;startFill=0;endArrow=open;endFill=0;endSize=10;fontFamily=Verdana;fontSize=10;exitX=0;exitY=0;exitDx=93.99999999999999;exitDy=42.07;exitPerimeter=0;entryX=0;entryY=0;entryDx=180;entryDy=58.5;entryPerimeter=0;" parent="1" source="aCvFtzd_hCHBJ19AGB1r-44" target="6e0c8c40b5770093-53" edge="1">
          <mxGeometry relative="1" as="geometry">
            <mxPoint x="1050" y="1210" as="sourcePoint" />
            <mxPoint x="1000" y="1310" as="targetPoint" />
            <Array as="points">
              <mxPoint x="920" y="843" />
              <mxPoint x="920" y="1600" />
            </Array>
          </mxGeometry>
        </mxCell>
        <mxCell id="aCvFtzd_hCHBJ19AGB1r-82" style="edgeStyle=none;rounded=0;html=1;dashed=1;labelBackgroundColor=none;startFill=0;endArrow=open;endFill=0;endSize=10;fontFamily=Verdana;fontSize=10;exitX=0;exitY=0;exitDx=94.7;exitDy=17;exitPerimeter=0;entryX=0;entryY=0;entryDx=0;entryDy=29.535;entryPerimeter=0;" parent="1" source="aCvFtzd_hCHBJ19AGB1r-13" target="aCvFtzd_hCHBJ19AGB1r-40" edge="1">
          <mxGeometry relative="1" as="geometry">
            <mxPoint x="428.9200000000001" y="852.5699999999997" as="sourcePoint" />
            <mxPoint x="230" y="760" as="targetPoint" />
            <Array as="points">
              <mxPoint x="1080" y="340" />
              <mxPoint x="1080" y="530" />
              <mxPoint x="250" y="530" />
              <mxPoint x="250" y="830" />
            </Array>
          </mxGeometry>
        </mxCell>
      </root>
    </mxGraphModel>
  </diagram>
</mxfile>
